<?xml version="1.0" encoding="UTF-8"?>
<svg version="1.1" xmlns="http://www.w3.org/2000/svg" width="611" height="1040">
<path d="M0 0 C21.56583917 7.33397104 47.1229845 36.0419327 60.76953125 53.21484375 C63.03084847 56.03852006 65.38555648 58.76242368 67.75 61.5 C118.2872504 122.09754286 140.1896718 205.09235216 133.22631836 282.91577148 C124.86415539 360.79023014 85.7976629 436.71969438 25.32421875 487.14453125 C22.5077187 489.41109425 19.63033266 491.58848431 16.71826172 493.73046875 C14.97436919 495.01893723 13.25406181 496.33468182 11.53515625 497.65625 C-32.63287428 531.26710309 -87.53884408 553.04529077 -143 557 C-144.04841064 557.0839502 -145.09682129 557.16790039 -146.17700195 557.25439453 C-188.03979013 560.49489839 -226.89248431 554.79374595 -267 543 C-268.12776855 542.66838867 -268.12776855 542.66838867 -269.27832031 542.33007812 C-274.61362477 540.74943912 -279.85240267 539.1201435 -285 537 C-283.53808561 532.74778292 -281.29333427 529.40790852 -278.6328125 525.8359375 C-272.40748973 517.29871654 -266.64917153 508.47069479 -260.875 499.625 C-259.81276551 498.00243032 -258.75026692 496.3800335 -257.6875 494.7578125 C-255.1219632 490.84051984 -252.55996923 486.92093312 -250 483 C-248.95666504 483.26482178 -247.91333008 483.52964355 -246.83837891 483.80249023 C-236.79574741 486.34039824 -226.7642134 488.66911177 -216.57128906 490.52978516 C-214.91525805 490.83262562 -213.26077651 491.14413198 -211.60839844 491.46630859 C-198.38287832 493.99078365 -185.23287416 494.28952947 -171.8125 494.3125 C-170.97408569 494.31608521 -170.13567139 494.31967041 -169.27185059 494.32336426 C-129.30592967 494.41524893 -92.43329667 484.44350161 -57 466 C-56.22060059 465.5978125 -55.44120117 465.195625 -54.63818359 464.78125 C-34.72414291 454.39836932 -17.25997022 440.38687934 -1 425 C-0.07058594 424.12472656 0.85882813 423.24945312 1.81640625 422.34765625 C8.4157638 415.95482198 14.12150859 409.14119224 19.62939453 401.81494141 C20.97456405 400.03368202 22.34269526 398.27223912 23.71484375 396.51171875 C31.5629552 386.29931088 37.93583848 375.34674855 44 364 C44.61488281 362.856521 44.61488281 362.856521 45.2421875 361.68994141 C55.6826619 341.94325556 63.41034536 319.06347207 67 297 C67.14518066 296.15985352 67.29036133 295.31970703 67.43994141 294.45410156 C72.00825202 267.04423787 72.06889485 237.33276964 67 210 C66.83902832 209.05801758 66.67805664 208.11603516 66.51220703 207.14550781 C62.85087779 185.89502626 56.54622792 164.95381316 46.09960938 146.01074219 C44.88309078 143.78622017 43.71502652 141.53933889 42.546875 139.2890625 C33.10072627 121.32785278 21.62623904 105.02310879 8 90 C6.9791534 88.85678268 5.9583202 87.7135534 4.9375 86.5703125 C-3.92657505 76.72791873 -13.55694286 68.15447228 -24 60 C-21.35983842 50.21353641 -17.46732035 40.98487758 -13.625 31.625 C-12.95792222 29.98975098 -12.2912528 28.35433531 -11.625 26.71875 C-10.04406431 22.8416492 -8.4554805 18.96776033 -6.86193848 15.0958252 C-6.05382467 13.13087605 -5.24888877 11.16465128 -4.44433594 9.19824219 C-3.99606445 8.10930664 -3.54779297 7.02037109 -3.0859375 5.8984375 C-2.70228027 4.96435059 -2.31862305 4.03026367 -1.92333984 3.06787109 C-1 1 -1 1 0 0 Z " fill="#231F20" transform="translate(477,252)"/>
<path d="M0 0 C1.64633423 0.00081573 1.64633423 0.00081573 3.32592773 0.00164795 C38.48986464 0.0815021 71.4935448 6.02569925 104.8125 17.375 C104.2535143 20.92309222 103.39834621 23.45027116 101.46875 26.47265625 C100.97238037 27.26115967 100.47601074 28.04966309 99.96459961 28.86206055 C99.41940674 29.71195557 98.87421387 30.56185059 98.3125 31.4375 C97.13489855 33.29832852 95.95922379 35.16037728 94.78515625 37.0234375 C94.14980957 38.03116211 93.51446289 39.03888672 92.85986328 40.07714844 C90.63264622 43.66470485 88.46468069 47.28352816 86.30859375 50.9140625 C85.5444024 52.1953096 84.78007985 53.47647846 84.015625 54.75756836 C82.88459106 56.65342642 81.75683746 58.55085359 80.63916016 60.45462036 C79.59024675 62.23972016 78.52888052 64.01685428 77.46484375 65.79296875 C76.85632568 66.82188232 76.24780762 67.8507959 75.62084961 68.91088867 C73.77492623 71.42619914 72.77546984 72.47999274 69.8125 73.375 C67.00749284 72.78986947 64.41323058 72.095779 61.6875 71.25 C53.67393374 68.95137594 45.6786635 67.37265197 37.4375 66.125 C35.85364502 65.88112549 35.85364502 65.88112549 34.23779297 65.63232422 C-27.24112849 56.60622692 -91.64426271 73.20404729 -141.6796875 109.90625 C-144.90769735 112.32570523 -148.05211054 114.83663931 -151.1875 117.375 C-151.70199707 117.7865332 -152.21649414 118.19806641 -152.74658203 118.62207031 C-166.19164259 129.41993854 -178.76429178 141.61789797 -189.1875 155.375 C-189.59742188 155.90319336 -190.00734375 156.43138672 -190.4296875 156.97558594 C-218.13165953 192.72998031 -235.7081834 236.32140858 -240.1875 281.375 C-240.29835937 282.45910156 -240.40921875 283.54320312 -240.5234375 284.66015625 C-244.21669671 327.33227279 -236.19509245 369.62873013 -218.1875 408.375 C-217.85637207 409.09236328 -217.52524414 409.80972656 -217.18408203 410.54882812 C-207.49007476 431.32521751 -194.78450888 450.46666225 -179.15234375 467.2578125 C-177.32442837 469.22745492 -175.59970825 471.25277648 -173.875 473.3125 C-169.11792191 478.80230338 -163.59613161 483.54364434 -158.1875 488.375 C-159.82263077 493.71469861 -162.04868969 498.69268815 -164.36328125 503.76171875 C-164.77031784 504.65937454 -165.17735443 505.55703033 -165.59672546 506.48188782 C-166.89502775 509.34336811 -168.19744386 512.20295396 -169.5 515.0625 C-170.36420503 516.96537095 -171.22813996 518.86836459 -172.09179688 520.77148438 C-174.10860898 525.21404543 -176.12847137 529.65520883 -178.14996338 534.09564209 C-179.53217812 537.13222127 -180.91266441 540.16958324 -182.29296875 543.20703125 C-182.92447917 544.59635417 -183.55598958 545.98567708 -184.1875 547.375 C-188.43877322 546.51814541 -190.99265957 544.30305185 -194.1875 541.5 C-195.04299438 540.76124634 -195.04299438 540.76124634 -195.91577148 540.00756836 C-197.68239647 538.47369579 -199.43714764 536.92740468 -201.1875 535.375 C-201.70973145 534.91206543 -202.23196289 534.44913086 -202.77001953 533.97216797 C-213.20228512 524.66953217 -223.31721792 515.08383243 -232.00390625 504.10546875 C-233.42852686 502.32405585 -234.89371073 500.57412964 -236.40234375 498.86328125 C-249.88712767 483.49376879 -260.89536221 465.54847293 -270.1875 447.375 C-270.65607422 446.46766113 -271.12464844 445.56032227 -271.60742188 444.62548828 C-291.133532 406.48101632 -304.20520802 363.21999042 -304.390625 320.0859375 C-304.39632507 319.02500885 -304.40202515 317.9640802 -304.40789795 316.8710022 C-304.41729663 314.63048278 -304.42386137 312.38994985 -304.42773438 310.14941406 C-304.4373343 306.80767901 -304.46836366 303.46658846 -304.5 300.125 C-304.5981598 280.38329427 -302.57760656 261.119714 -298.4375 241.8125 C-298.17928467 240.59836426 -297.92106934 239.38422852 -297.6550293 238.13330078 C-288.16280691 194.78008383 -268.88906721 153.1138229 -241.1875 118.375 C-240.40890625 117.385 -239.6303125 116.395 -238.828125 115.375 C-224.64563513 97.67203392 -208.35925807 80.00381855 -190.1875 66.375 C-189.00435202 65.45292063 -187.82213108 64.52965104 -186.640625 63.60546875 C-158.41219804 41.74318087 -126.9374285 25.73823719 -93.1875 14.375 C-92.3413916 14.08496094 -91.4952832 13.79492188 -90.62353516 13.49609375 C-79.79007571 9.82358426 -68.77782892 7.32367453 -57.5625 5.125 C-56.31259277 4.87854736 -55.06268555 4.63209473 -53.77490234 4.37817383 C-35.83401857 1.00039322 -18.2448239 -0.03411342 0 0 Z " fill="#231F20" transform="translate(304.1875,198.625)"/>
<path d="M0 0 C2.01882674 -0.00961117 4.03659105 -0.04065578 6.05517578 -0.07226562 C18.48803149 -0.12087894 30.24332548 1.89441155 42.05126953 5.92773438 C42.79908691 6.18192139 43.5469043 6.4361084 44.31738281 6.69799805 C69.67173176 15.67329788 93.43413409 35.0995553 105.66064453 59.30664062 C106.11955078 60.27472656 106.57845703 61.2428125 107.05126953 62.24023438 C107.61330078 63.38363281 108.17533203 64.52703125 108.75439453 65.70507812 C112.43749165 73.46108188 115.14206554 81.34057977 117.42626953 89.61523438 C117.67699219 90.51798096 117.92771484 91.42072754 118.18603516 92.35083008 C125.85293368 121.46742555 119.36547926 152.32310857 105.05126953 178.24023438 C89.32169313 205.20324617 62.67488257 224.77246046 32.64648438 232.71850586 C1.76114897 240.35778693 -29.21143607 235.95508888 -56.78320312 220.19140625 C-84.58654531 203.41253663 -103.99191485 178.63921307 -112.42919922 147.34570312 C-114.7847216 137.79963874 -115.35226432 128.55933926 -115.32373047 118.74023438 C-115.32318665 118.03535889 -115.32264282 117.3304834 -115.32208252 116.60424805 C-115.28134615 105.09769056 -114.39961002 94.26982718 -110.94873047 83.24023438 C-110.73974121 82.55654785 -110.53075195 81.87286133 -110.31542969 81.16845703 C-105.46664929 65.80853772 -97.62086662 52.28009917 -86.94873047 40.24023438 C-86.33771484 39.48613281 -85.72669922 38.73203125 -85.09716797 37.95507812 C-64.57691299 13.1997918 -31.51625687 0.09023982 0 0 Z " fill="#A71930" transform="translate(302.94873046875,386.759765625)"/>
<path d="M0 0 C3.322011 1.107337 3.83964446 1.78448676 5.9375 4.4375 C14.06519401 13.96240765 24.16247129 20.89273382 35 27 C36.05445313 27.60714844 37.10890625 28.21429687 38.1953125 28.83984375 C48.2848007 34.29007556 58.94460044 37.14990343 70 40 C69.36559442 43.28765146 68.17333554 45.56415972 66.33544922 48.3503418 C65.77751678 49.20190353 65.21958435 50.05346527 64.64474487 50.93083191 C63.73391647 52.3011834 63.73391647 52.3011834 62.8046875 53.69921875 C61.86618454 55.12365044 61.86618454 55.12365044 60.90872192 56.57685852 C59.58152749 58.58844398 58.25152549 60.59817946 56.91894531 62.60620117 C54.89718336 65.65405803 52.88540734 68.70831681 50.875 71.76367188 C49.58132353 73.72174698 48.28707057 75.67944136 46.9921875 77.63671875 C46.39711395 78.54016525 45.80204041 79.44361176 45.18893433 80.37443542 C41.88186993 85.34681018 38.40585532 90.09279266 34.70397949 94.77684021 C31.82481565 98.53324767 29.25812314 102.48551847 26.67578125 106.44921875 C25.80584534 107.7739193 25.80584534 107.7739193 24.91833496 109.12538147 C23.04634187 111.97721963 21.17943049 114.83234572 19.3125 117.6875 C16.70995814 121.65601505 14.10492959 125.62289574 11.5 129.58984375 C10.53523491 131.06023605 10.53523491 131.06023605 9.55097961 132.56033325 C5.72347695 138.39026299 1.87735191 144.20701124 -2 150.00390625 C-2.45099564 150.67826218 -2.90199127 151.3526181 -3.36665344 152.04740906 C-5.40111915 155.08709708 -7.4392708 158.1242581 -9.48120117 161.15893555 C-13.33473031 166.90889836 -17.07997216 172.70684355 -20.71875 178.59375 C-26.07655935 187.24216698 -31.76879779 195.65261608 -37.48779297 204.06494141 C-48.28875292 219.95856698 -58.95504019 235.93555718 -69.5 252 C-79.65322695 267.46377903 -89.92649882 282.83989788 -100.29940796 298.15710449 C-109.74917687 312.11551325 -119.06280772 326.15831576 -128.3125 340.25 C-135.97839694 351.92842134 -143.66886677 363.55942519 -151.74267578 374.9609375 C-160.24456651 387.0581327 -168.2604285 399.49014273 -176.36132812 411.85742188 C-184.10383173 423.66799839 -191.97434611 435.37982958 -200 447 C-201.39361922 442.81914234 -199.63932978 440.40225078 -197.8359375 436.6328125 C-197.49282532 435.89532272 -197.14971313 435.15783295 -196.79620361 434.397995 C-196.05357099 432.80455989 -195.3064831 431.21319535 -194.55548096 429.62368774 C-192.95886988 426.24419017 -191.38350325 422.85493319 -189.80661011 419.46620178 C-189.00625526 417.7470332 -188.20475535 416.02839726 -187.40213013 414.31028748 C-184.07054001 407.17590181 -180.82741989 400.00590951 -177.625 392.8125 C-176.57859769 390.46853892 -175.53170574 388.12479638 -174.484375 385.78125 C-174.07880371 384.87363167 -174.07880371 384.87363167 -173.66503906 383.94767761 C-169.76291772 375.22339 -165.81643136 366.51907693 -161.875 357.8125 C-161.47267151 356.92366119 -161.07034302 356.03482239 -160.65582275 355.11904907 C-158.59472915 350.56572677 -156.53329839 346.01255723 -154.47167969 341.45947266 C-150.87293244 333.51119221 -147.27727608 325.56151366 -143.68145752 317.61190796 C-141.70443838 313.24121164 -139.72720826 308.87061077 -137.75 304.5 C-136.95833233 302.75000045 -136.16666566 301.00000045 -135.375 299.25 C-114.79166667 253.75 -94.20833333 208.25 -73.625 162.75 C-73.23313004 161.88376007 -72.84126007 161.01752014 -72.43751526 160.12503052 C-71.64580095 158.37492734 -70.85408342 156.62482561 -70.06236267 154.87472534 C-68.08389861 150.50131593 -66.10549035 146.12788129 -64.12719727 141.75439453 C-60.55644105 133.86053492 -56.98529409 125.96685337 -53.41203308 118.0741272 C-51.81674869 114.55034591 -50.22174564 111.02643731 -48.62680054 107.50250244 C-47.83737464 105.75843657 -47.04784511 104.01441759 -46.25820923 102.27044678 C-41.82761161 92.48448901 -37.40955394 82.6931075 -33.015625 72.890625 C-32.19735799 71.06656408 -31.37908013 69.24250803 -30.56079102 67.41845703 C-29.02452928 63.99363691 -27.49161775 60.56734539 -25.96069336 57.14013672 C-22.56292269 49.55363653 -19.0651469 42.06336401 -15.29321289 34.65332031 C-13.68043481 31.34433935 -12.33626958 27.96774087 -11.00976562 24.53613281 C-9.09966692 19.73871856 -6.9046392 15.06635105 -4.75 10.375 C-4.29109375 9.37082031 -3.8321875 8.36664062 -3.359375 7.33203125 C-2.24167177 4.88705544 -1.12185242 2.44307404 0 0 Z " fill="#A71930" transform="translate(206,593)"/>
<path d="M0 0 C0.66 0 1.32 0 2 0 C-0.53556164 7.98875584 -3.61803671 15.73159121 -6.75 23.5 C-7.35767879 25.01278757 -7.96517492 26.52564853 -8.57250977 28.03857422 C-10.71056231 33.36084223 -12.85519223 38.68045147 -15 44 C-15.84555188 46.09797713 -16.69109182 48.19595907 -17.53662109 50.29394531 C-22.83852835 63.44744379 -28.14651228 76.59848648 -33.45681763 89.74859619 C-38.33068889 101.81802579 -43.20134674 113.88875115 -48.07156372 125.95965576 C-50.46423311 131.88982809 -52.85712833 137.81990929 -55.25 143.75 C-56.20833441 146.12499957 -57.16666774 148.49999957 -58.125 150.875 C-109.87499999 279.12499997 -109.87499999 279.12499997 -111.31228638 282.68696594 C-112.27133608 285.0637444 -113.23038149 287.44052459 -114.18942261 289.81730652 C-116.57426029 295.72761029 -118.95917091 301.63788461 -121.34423828 307.5480957 C-125.78769948 318.5592388 -130.23047326 329.57065779 -134.67071533 340.58309937 C-136.48729513 345.08846231 -138.3042351 349.59367999 -140.12125015 354.09886742 C-141.35058296 357.14700837 -142.57965615 360.1952536 -143.80834961 363.24365234 C-149.82883146 378.18035701 -155.88474814 393.10182514 -162 408 C-166.61561346 408 -166.79340446 407.63810021 -169.875 404.5625 C-186.28383942 389.38499274 -206.83783284 381.87467101 -228 376 C-226.5811515 372.15228268 -224.7858407 368.79738457 -222.6484375 365.30078125 C-221.97039062 364.18767578 -221.29234375 363.07457031 -220.59375 361.92773438 C-219.85426098 360.72259837 -219.11467505 359.51752183 -218.375 358.3125 C-217.606477 357.05421587 -216.83825246 355.79574941 -216.0703125 354.53710938 C-210.41259258 345.27240553 -204.71794751 336.03025679 -199.02075195 326.78979492 C-194.17132158 318.91964161 -189.35679971 311.02880075 -184.5625 303.125 C-184.21043488 302.54461975 -183.85836975 301.9642395 -183.49563599 301.36627197 C-180.99594649 297.24487453 -178.49779706 293.12254456 -176 289 C-173.14689185 284.29102437 -170.29310054 279.58246471 -167.4375 274.875 C-167.08535431 274.29445862 -166.73320862 273.71391724 -166.37039185 273.11578369 C-160.62527437 263.64760366 -154.82978512 254.2110231 -149.01708984 244.78417969 C-144.16918854 236.91570872 -139.35564136 229.02689113 -134.5625 221.125 C-134.21043488 220.54461975 -133.85836975 219.9642395 -133.49563599 219.36627197 C-130.99594649 215.24487453 -128.49779706 211.12254456 -126 207 C-123.14689185 202.29102437 -120.29310054 197.58246471 -117.4375 192.875 C-117.08535431 192.29445862 -116.73320862 191.71391724 -116.37039185 191.11578369 C-110.62527437 181.64760366 -104.82978512 172.2110231 -99.01708984 162.78417969 C-94.16918854 154.91570872 -89.35564136 147.02689113 -84.5625 139.125 C-84.21043488 138.54461975 -83.85836975 137.9642395 -83.49563599 137.36627197 C-80.99594649 133.24487453 -78.49779706 129.12254456 -76 125 C-73.14689185 120.29102437 -70.29310054 115.58246471 -67.4375 110.875 C-67.08535431 110.29445862 -66.73320862 109.71391724 -66.37039185 109.11578369 C-60.62527437 99.64760366 -54.82978512 90.2110231 -49.01708984 80.78417969 C-42.3770471 70.00694222 -35.80944747 59.18626927 -29.24942017 48.36024475 C-26.65763768 44.08334301 -24.06208109 39.80874728 -21.46484375 35.53515625 C-20.90550644 34.61452393 -20.90550644 34.61452393 -20.33486938 33.67529297 C-18.50623299 30.66551614 -16.67677574 27.65624458 -14.84570312 24.64794922 C-11.86901907 19.75216126 -8.90023017 14.85400222 -6.00390625 9.91015625 C-5.58044922 9.18997314 -5.15699219 8.46979004 -4.72070312 7.7277832 C-3.6627908 5.92125965 -2.61410878 4.10933887 -1.56640625 2.296875 C-0.79103516 1.15992187 -0.79103516 1.15992187 0 0 Z " fill="#A71930" transform="translate(560,0)"/>
</svg>
